<svg width="80" height="80" viewBox="0 0 80 80" fill="none" xmlns="http://www.w3.org/2000/svg">
  <!-- Soleil premium, haut gauche -->
  <circle cx="16" cy="16" r="3" stroke="#C39847" stroke-width="1.5"/>
  <g stroke="#C39847" stroke-width="0.8">
    <line x1="16" y1="8" x2="16" y2="4"/>
    <line x1="16" y1="24" x2="16" y2="28"/>
    <line x1="8" y1="16" x2="4" y2="16"/>
    <line x1="24" y1="16" x2="28" y2="16"/>
    <line x1="20" y1="20" x2="24" y2="24"/>
    <line x1="12" y1="20" x2="8" y2="24"/>
    <line x1="20" y1="12" x2="24" y2="8"/>
    <line x1="12" y1="12" x2="8" y2="8"/>
  </g>
  <!-- Feuille de papier premium -->
  <rect x="28" y="28" width="36" height="44" rx="7" stroke="#C39847" stroke-width="2"/>
  <!-- Coin replié -->
  <polyline points="56,28 64,28 64,36" stroke="#C39847" stroke-width="2" fill="none"/>
  <!-- Lignes de texte -->
  <line x1="36" y1="40" x2="60" y2="40" stroke="#C39847" stroke-width="1.2"/>
  <line x1="36" y1="48" x2="60" y2="48" stroke="#C39847" stroke-width="1.2"/>
  <line x1="36" y1="56" x2="52" y2="56" stroke="#C39847" stroke-width="1"/>
  <!-- Crayon doré -->
  <rect x="44" y="68" width="18" height="3.5" rx="1.7" transform="rotate(-15 44 68)" stroke="#C39847" fill="none" stroke-width="2"/>
  <polygon points="61,68 64,67 62.5,71" fill="#C39847"/>
  <circle cx="45.5" cy="69.7" r="1" fill="#C39847"/>
</svg>
